<svg xmlns="http://www.w3.org/2000/svg" xml:space="preserve" width="2048" height="2048" style="shape-rendering:geometricPrecision;text-rendering:geometricPrecision;image-rendering:optimizeQuality;fill-rule:evenodd;clip-rule:evenodd"><defs><clipPath id="id0"><path d="M1024 0c565.538 0 1024 458.462 1024 1024s-458.462 1024-1024 1024S0 1589.538 0 1024 458.462 0 1024 0z"/></clipPath><style>.fil7{fill:#1556a0}.fil1{fill:#ec407a}</style></defs><g id="Layer_x0020_1"><path d="M1024 0c565.538 0 1024 458.462 1024 1024s-458.462 1024-1024 1024S0 1589.538 0 1024 458.462 0 1024 0z" style="fill:#f06292"/><g style="clip-path:url(#id0)"><g id="_385689064"><path id="_2380684481" class="fil1" d="M2586.75 2605.27zM1450.87 1469.39z"/><path id="_238067992" class="fil1" d="M1733.01 2232.64zM597.13 1096.76z"/><path id="_238069264" class="fil1" d="M1564.61 855.201 2700.49 1991.08l1.24 1.46 1.19 1.48 1.16 1.52 1.13 1.54 1.09 1.57 1.05 1.59 1.02 1.62.97 1.65.94 1.68.9 1.69.86 1.72.81 1.75.78 1.77.73 1.79.69 1.81.65 1.83.6 1.85.56 1.87.51 1.89.47 1.9.42 1.93.38 1.94.32 1.96.28 1.97.23 1.99.18 2 .13 2.01.08 2.03.02 2.04L1584 907.052l-.03-2.041-.07-2.029-.13-2.016-.18-2.002-.23-1.988-.28-1.973-.32-1.957-.38-1.941-.42-1.924-.47-1.908-.51-1.888-.56-1.87-.6-1.851-.65-1.831-.69-1.81-.73-1.79-.78-1.767-.82-1.744-.85-1.721-.9-1.697-.94-1.674-.98-1.647-1.01-1.623-1.05-1.596-1.09-1.568-1.13-1.542-1.16-1.514-1.2-1.483z"/><path id="_238069408" class="fil1" d="M1161.76 597.815 2297.64 1733.7l1.27 1.42 1.23 1.46 1.19 1.48 1.17 1.51 1.12 1.55 1.09 1.56 1.05 1.6 1.02 1.62.97 1.65.94 1.67.9 1.7.86 1.72.81 1.75.78 1.77.73 1.78.69 1.82.65 1.83.61 1.85.55 1.87.52 1.89.47 1.9.42 1.93.37 1.94.33 1.96.27 1.97.23 1.99.18 2 .13 2.01.08 2.03.02 2.04L1182.41 651.091l-.02-2.041-.08-2.029-.13-2.015-.18-2.002-.23-1.989-.27-1.972-.33-1.957-.37-1.942-.43-1.924-.46-1.907-.52-1.889-.56-1.87-.6-1.85-.65-1.831-.69-1.811-.73-1.789-.78-1.767-.81-1.745-.86-1.72-.9-1.699-.94-1.672-.97-1.649-1.02-1.622-1.05-1.597-1.09-1.568-1.13-1.541-1.16-1.513-1.19-1.485-1.23-1.455z"/><path id="_238068688" class="fil1" d="M1182.41 651.091 2318.29 1786.97v176.65L1182.41 827.74z"/><path id="_238068856" class="fil1" d="M1560.72 1285 2696.6 2420.89l-1.36 1.33-1.4 1.3-1.42 1.26-1.45 1.23-1.49 1.2-1.51 1.16-1.54 1.13-1.57 1.08-1.6 1.06-1.62 1.01-1.65.98-1.67.94-1.7.89-1.72.86-1.75.82-1.76.77-1.79.74-1.81.69-1.83.65-1.85.6-1.87.56-1.89.51-1.91.47-1.92.42-1.95.37-1.95.33-1.98.28-1.98.23-2.01.18-2.01.12-2.03.08-2.04.03-1135.88-1135.88 2.04-.03 2.03-.08 2.01-.13 2-.18 1.99-.22 1.98-.28 1.95-.33 1.94-.37 1.93-.42 1.91-.47 1.88-.51 1.87-.56 1.86-.61 1.83-.64 1.81-.69 1.79-.74 1.76-.77 1.75-.82 1.72-.86 1.7-.9 1.67-.93 1.65-.98 1.62-1.02 1.6-1.05 1.57-1.09 1.54-1.12 1.51-1.16 1.48-1.2 1.46-1.23 1.42-1.27 1.4-1.3z"/><path id="_238069936" class="fil1" d="m1504.69 1308.29 1135.88 1135.88h-13.99L1490.7 1308.29z"/><path id="_238069600" class="fil1" d="m1490.7 1308.29 1135.88 1135.88v144.6L1490.7 1452.89z"/><path id="_238069984" class="fil1" d="m1490.7 1452.89 1135.88 1135.88-.02 1.12-.08 1.12-.14 1.11-.18 1.11-.24 1.1-.3 1.09-.35 1.07-.4 1.06-.45 1.05-.51 1.02-.56 1.01-.61.98-.67.96-.72.93-.77.9-.83.87-1135.88-1135.88.83-.87.77-.9.72-.93.67-.96.61-.98.56-1.01.51-1.03.45-1.04.4-1.06.35-1.08.3-1.09.23-1.09.19-1.11.14-1.11.08-1.12z"/><path id="_238069456" class="fil1" d="m1483.87 1469.39 1135.88 1135.88-1.77 1.6-1.89 1.39-1.99 1.18-2.07.96-2.14.74-2.18.54-2.22.32-2.24.1-2.24-.1-2.22-.32-2.18-.54-2.14-.74-2.07-.97-1.99-1.17-1.89-1.39-1.77-1.6-1135.88-1135.88 1.77 1.6 1.89 1.39 1.99 1.17 2.07.96 2.14.75 2.18.53 2.22.33 2.24.1 2.24-.1 2.22-.32 2.18-.54 2.14-.75 2.07-.96 1.99-1.17 1.89-1.39z"/><path id="_238070056" class="fil1" d="M865.587 935.658 2001.47 2071.54h-107.36L758.229 935.658z"/><path id="_238069888" class="fil1" d="M557.296 935.658 1693.18 2071.54h-13.99L543.312 935.658z"/><path id="_238070152" class="fil1" d="M543.312 935.658 1679.19 2071.54l-2.04-.03-2.03-.07-2.01-.13-2-.18-1.99-.23-1.98-.28-1.95-.32-1.94-.38-1.93-.42-1.91-.47-1.88-.51-1.87-.56-1.86-.6-1.83-.65-1.81-.69-1.79-.73-1.76-.78-1.75-.82-1.72-.85-1.7-.9-1.67-.94-1.65-.98-1.62-1.01-1.6-1.05-1.56-1.09-1.55-1.13-1.51-1.16-1.48-1.2-1.46-1.23-1.42-1.26L490.036 915.007l1.425 1.265 1.455 1.23 1.483 1.197 1.514 1.162 1.542 1.126 1.568 1.089 1.597 1.052 1.622 1.014 1.647.977 1.674.938 1.697.898 1.722.857 1.745.817 1.767.775 1.789.734 1.81.691 1.83.647 1.851.603 1.871.559 1.888.514 1.908.468 1.924.42 1.941.374 1.958.326 1.972.278 1.988.229 2.002.179 2.016.128 2.029.078z"/><path id="_238070008" class="fil1" d="M758.229 935.658 1894.11 2071.54l-161.1 161.1L597.13 1096.76z"/><path id="_238069480" class="fil1" d="m597.13 1096.76 1135.88 1135.88-1.77 1.6-1.89 1.39-1.99 1.18-2.07.96-2.13.75-2.19.53-2.22.32-2.24.11-2.23-.11-2.22-.32-2.19-.53-2.14-.75-2.07-.96-1.99-1.18-1.89-1.39-1.77-1.6L564.132 1096.76l1.771 1.6 1.889 1.39 1.988 1.18 2.07.96 2.138.74 2.186.54 2.221.32 2.235.1 2.237-.1 2.221-.32 2.186-.54 2.138-.74 2.07-.96 1.988-1.18 1.889-1.39z"/><path id="_238069672" class="fil1" d="m1289.77 1308.29 1135.88 1135.88h-344.87L944.899 1308.29z"/><path id="_238070464" class="fil1" d="M944.899 1308.29 2080.78 2444.17l-2.04-.03-2.03-.08-2.01-.12-2.01-.18-1.98-.23-1.98-.28-1.96-.33-1.94-.37-1.92-.42-1.91-.47-1.89-.51-1.87-.56-1.85-.6-1.83-.65-1.81-.69-1.79-.74-1.76-.77-1.75-.82-1.72-.86-1.7-.89-1.67-.94-1.65-.98-1.62-1.01-1.6-1.06-1.57-1.08-1.54-1.13-1.51-1.16-1.48-1.2-1.46-1.23-1.42-1.26L891.624 1287.63l1.425 1.27 1.455 1.23 1.484 1.2 1.513 1.16 1.542 1.12 1.568 1.09 1.597 1.05 1.622 1.02 1.649.98 1.672.93 1.699.9 1.72.86 1.745.82 1.767.77 1.789.74 1.81.69 1.83.64 1.851.61 1.871.56 1.889.51 1.907.47 1.924.42 1.941.37 1.958.33 1.972.28 1.988.22 2.002.18 2.015.13 2.029.08z"/><path id="_238070440" class="fil1" d="M1584 907.052 2719.88 2042.93v321.93L1584 1228.97z"/><path id="_238070536" class="fil1" d="m1584 1228.97 1135.88 1135.89-.02 2.04-.08 2.03-.13 2.01-.18 2-.23 1.99-.28 1.97-.32 1.96-.38 1.94-.42 1.93-.47 1.9-.51 1.89-.56 1.87-.6 1.85-.65 1.83-.69 1.81-.73 1.79-.78 1.77-.81 1.74-.86 1.73-.9 1.69-.94 1.68-.97 1.65-1.02 1.62-1.05 1.59-1.09 1.57-1.13 1.54-1.16 1.52-1.19 1.48-1.24 1.46-1.26 1.42-1.3 1.39-1.33 1.37L1560.72 1285l1.33-1.36 1.3-1.39 1.26-1.43 1.23-1.45 1.2-1.49 1.16-1.51 1.13-1.54 1.09-1.57 1.05-1.6 1.01-1.62.98-1.65.94-1.67.9-1.7.85-1.72.82-1.74.78-1.77.73-1.79.69-1.81.65-1.83.6-1.85.56-1.87.51-1.89.47-1.91.42-1.92.38-1.94.32-1.96.28-1.97.23-1.99.18-2 .13-2.02.07-2.03z"/><path id="_385689184" class="fil1" d="M1450.87 1469.39zm-853.744-372.627zm612.158-269.02h295.402c21.835 0 41.67 8.916 56.033 23.28s23.28 34.196 23.28 56.032v321.922c0 21.834-8.917 41.668-23.28 56.032-14.364 14.363-34.2 23.28-56.033 23.28h-13.984l-.001 144.604a23.26 23.26 0 0 1-6.834 16.5c-9.113 9.111-23.887 9.111-32.997-.002l-161.1-161.101H944.896c-21.834 0-41.668-8.917-56.031-23.28-14.364-14.364-23.281-34.198-23.281-56.032V935.663H758.227l-161.099 161.102c-9.112 9.112-23.887 9.112-32.999 0a23.267 23.267 0 0 1-6.835-16.499V935.662H543.31c-21.836 0-41.67-8.916-56.033-23.28-14.363-14.363-23.28-34.198-23.28-56.032V651.096c0-21.836 8.917-41.67 23.28-56.033 14.364-14.363 34.197-23.28 56.033-23.28h559.789c21.834 0 41.668 8.917 56.031 23.28 14.364 14.364 23.281 34.198 23.281 56.033v176.648h26.873z"/></g></g><path d="M1024 0c565.538 0 1024 458.462 1024 1024s-458.462 1024-1024 1024S0 1589.538 0 1024 458.462 0 1024 0z" style="fill:none"/><path d="M1182.41 857.574V651.091c0-21.835-8.917-41.67-23.28-56.033-14.364-14.363-34.198-23.28-56.032-23.28h-559.79c-21.835 0-41.668 8.917-56.032 23.28-14.363 14.364-23.28 34.197-23.28 56.033v205.254c0 21.834 8.917 41.67 23.28 56.033 14.364 14.363 34.197 23.28 56.033 23.28h13.984v144.603h.001a23.26 23.26 0 0 0 6.834 16.499c9.112 9.112 23.887 9.112 32.999 0l-.002-.001 161.1-161.101H944.03c0-106.511 134.88-78.084 238.38-78.084z" style="fill:#1565c0;fill-rule:nonzero"/><path style="fill:#0a3476;fill-rule:nonzero" d="M803.02 864.114v-41.636h41.637v41.636z"/><path d="M803.02 808.111c-.1-5.464-.151-8.753-.151-9.966 0-12.245 2.023-22.311 6.07-30.203 4.048-7.943 12.192-16.796 24.335-26.712 12.142-9.866 19.427-16.34 21.755-19.427 3.692-4.806 5.513-10.17 5.513-15.986 0-8.095-3.237-15.026-9.713-20.843-6.476-5.769-15.179-8.653-26.156-8.653-10.572 0-19.427 3.037-26.56 9.057-7.082 6.02-11.99 15.228-14.671 27.572l-38.196-4.757c1.063-17.706 8.6-32.73 22.563-45.075 14.014-12.344 32.328-18.517 55.094-18.517 23.878 0 42.9 6.275 57.066 18.77 14.114 12.495 21.197 27.015 21.197 43.659 0 9.157-2.63 17.86-7.79 26.055-5.212 8.196-16.291 19.376-33.29 33.49-8.803 7.336-14.266 13.205-16.39 17.656-2.126 4.452-3.087 12.395-2.884 23.88H803.02z" style="fill:#0d3168;fill-rule:nonzero"/><path d="M1209.29 827.74h295.402c21.835 0 41.67 8.916 56.033 23.28s23.28 34.196 23.28 56.032v321.922c0 21.834-8.917 41.668-23.28 56.032-14.364 14.363-34.2 23.28-56.033 23.28h-13.984v144.604h-.001a23.26 23.26 0 0 1-6.834 16.5c-9.113 9.111-23.887 9.111-33 0l.003-.002-161.1-161.101H944.902c-21.834 0-41.668-8.917-56.031-23.28-14.364-14.364-23.281-34.198-23.281-56.032V907.053c0-21.835 8.916-41.668 23.28-56.033 14.363-14.363 34.198-23.28 56.032-23.28h264.386z" style="fill:#1e88e5;fill-rule:nonzero"/><path class="fil7" d="M985.992 996.469h477.604v28.255H985.992zM985.992 1052.98h477.604v28.255H985.992zM985.992 1109.49h254.498v28.255H985.992z"/></g></svg>